<svg width="32" height="32" viewBox="0 0 32 32" fill="none" xmlns="http://www.w3.org/2000/svg">
<path d="M22.6763 12.2929C22.6546 12.2228 22.6146 12.1593 22.56 12.1083C22.5055 12.0573 22.4382 12.0207 22.3647 12.0019C22.2912 11.9826 22.2137 11.9823 22.14 12.0011C22.0663 12.0198 21.999 12.0568 21.945 12.1085L19.6429 14.2721L17.9586 13.948L17.6233 12.3344L19.9509 10.1471C20.0054 10.096 20.0452 10.0322 20.0664 9.96192C20.0876 9.89163 20.0894 9.81725 20.0718 9.74606C20.0541 9.67487 20.0176 9.6093 19.9657 9.55575C19.9138 9.50221 19.8484 9.46252 19.7758 9.44056C19.3527 9.30669 18.9108 9.23592 18.4655 9.23071C16.0393 9.23071 14.0655 11.1286 14.0655 13.4615C14.0655 13.7348 14.0989 14.0115 14.1693 14.3161C13.6747 14.7079 13.2048 15.0455 12.6724 15.4279C11.9112 15.9746 11.0488 16.5931 9.87226 17.5484C9.53401 17.8287 9.26203 18.1753 9.07458 18.5649C8.88713 18.9546 8.78855 19.3783 8.78546 19.8076C8.78546 21.4407 10.1671 22.7692 11.8655 22.7692C12.3125 22.7678 12.7539 22.6724 13.1585 22.4897C13.5632 22.307 13.9214 22.0414 14.208 21.7115C14.987 20.8318 15.7337 19.9262 16.4467 18.9962C16.8357 18.4961 17.1789 18.0561 17.5758 17.5916C17.8926 17.6601 18.1812 17.6923 18.4655 17.6923C20.8916 17.6923 22.8655 15.7943 22.8655 13.4615C22.8614 13.0652 22.7977 12.6716 22.6763 12.2929ZM11.8655 20.6538C11.6321 20.6538 11.4082 20.5646 11.2432 20.406C11.0782 20.2473 10.9855 20.032 10.9855 19.8076C10.9855 19.5832 11.0782 19.368 11.2432 19.2093C11.4082 19.0506 11.6321 18.9615 11.8655 18.9615C12.0989 18.9615 12.3227 19.0506 12.4877 19.2093C12.6527 19.368 12.7455 19.5832 12.7455 19.8076C12.7455 20.032 12.6527 20.2473 12.4877 20.406C12.3227 20.5646 12.0989 20.6538 11.8655 20.6538Z" fill="#1F393C"/>
<path d="M15.8254 28.9347C23.2102 28.9347 29.2474 23.1711 29.2474 16C29.2474 8.829 23.2102 3.06543 15.8254 3.06543C8.44067 3.06543 2.40344 8.829 2.40344 16C2.40344 23.1711 8.44067 28.9347 15.8254 28.9347Z" stroke="#1F393C" stroke-width="1.5"/>
</svg>
